<?xml version="1.0" encoding="utf-8"?>
<!-- Generator: Adobe Illustrator 16.0.0, SVG Export Plug-In . SVG Version: 6.00 Build 0)  -->
<!DOCTYPE svg PUBLIC "-//W3C//DTD SVG 1.1//EN" "http://www.w3.org/Graphics/SVG/1.1/DTD/svg11.dtd">
<svg version="1.1" id="Layer_1" xmlns="http://www.w3.org/2000/svg" xmlns:xlink="http://www.w3.org/1999/xlink" x="0px" y="0px"
	 width="500px" height="500px" viewBox="0 0 500 500" enable-background="new 0 0 500 500" xml:space="preserve">
<path d="M250,0C111.93,0,0,111.93,0,250c0,138.07,111.93,250,250,250c138.07,0,250-111.93,250-250C500,111.93,388.07,0,250,0z
	 M271.31,473.5c-7.01,0.66-14.119,1-21.31,1c-7.19,0-14.3-0.34-21.31-1C116.41,462.93,28.19,369.67,25.56,255.26
	c-0.04-1.75-0.06-3.5-0.06-5.26c0-21.4,2.99-42.09,8.59-61.69C60.89,94.32,147.4,25.5,250,25.5c102.6,0,189.11,68.82,215.91,162.81
	c5.6,19.6,8.59,40.29,8.59,61.69c0,1.76-0.02,3.51-0.06,5.26C471.81,369.67,383.59,462.93,271.31,473.5z"/>
<path d="M475.899,250c0,1.76-0.02,3.51-0.062,5.26c-17.167-1.42-34.424-2.819-50.328-2.47c-15.214,0.32-29.178,2.229-45.347,5.26
	c-19.547,3.66-42.306,8.96-65.074,14.24c2.4-7,3.69-14.5,3.69-22.29c0-9.61-1.973-18.77-5.533-27.11
	c13.721,0.85,27.347,1.76,44.615,1.06c20.003-0.8,44.888-3.76,59.471-6.48c9.062-1.69,14.136-3.28,21.733-7.64
	c8.806-5.06,20.989-13.82,25.129-17.85c1.555-1.52,1.973-2.37,2.97-3.67C472.858,207.91,475.899,228.6,475.899,250z"/>
<path d="M265.05,404.283c0.7,16.8,3.48,43.738,6.26,70.699C264.3,475.654,257.19,476,250,476c-7.19,0-14.3-0.346-21.31-1.018
	c2.78-26.961,5.56-53.899,6.26-70.699c0.42-10.384,0.06-16.894-1.06-26.961c-1.73-15.496-5.23-39.42-8.72-63.362
	c7.72,2.996,16.09,4.625,24.83,4.625s17.11-1.629,24.83-4.625c-3.49,23.942-7,47.866-8.72,63.362
	C264.99,387.39,264.63,393.899,265.05,404.283z"/>
<path d="M181.219,250c0,7.79,1.292,15.29,3.692,22.29c-22.77-5.28-45.53-10.58-65.075-14.24c-16.169-3.03-30.133-4.939-45.346-5.26
	c-15.906-0.35-33.163,1.05-50.329,2.47c-0.041-1.75-0.062-3.5-0.062-5.26c0-21.4,3.042-42.09,8.735-61.69
	c0.997,1.3,1.414,2.15,2.97,3.67c4.139,4.03,16.322,12.79,25.129,17.85c7.597,4.36,12.671,5.95,21.732,7.64
	c14.583,2.72,39.467,5.68,59.471,6.48c17.268,0.7,30.896-0.21,44.614-1.06C183.192,231.23,181.219,240.39,181.219,250z"/>
<path d="M314.56,222.89C303.96,197.69,279.05,180,250,180s-53.96,17.69-64.56,42.89c-3.5,8.34-5.44,17.5-5.44,27.11
	c0,7.79,1.27,15.29,3.63,22.29c6.67,19.88,22.02,35.77,41.54,43.17c7.72,2.94,16.09,4.54,24.83,4.54s17.11-1.6,24.83-4.54
	c19.52-7.4,34.87-23.29,41.54-43.17c2.36-7,3.63-14.5,3.63-22.29C320,240.39,318.06,231.23,314.56,222.89z M250,300
	c-27.61,0-50-22.39-50-50c0-27.61,22.39-50,50-50c27.61,0,50,22.39,50,50C300,277.61,277.61,300,250,300z"/>
</svg>
